# xmcd
#
# Track frame offsets: 
#        150
#        15256
#        34301
#        49380
#        63427
#        78755
#        92107
#        107937
#        121299
#        138708
#        157057
#        170821
#        189143
#        205081
#        219768
#        236301
#        252493
#        265998
#
# Disc length: 3733 seconds
#
# Revision: 3
# Processed by: cddbd v1.5.2PL0 Copyright (c) Steve Scherf et al.
# Submitted via: ExactAudioCopy v0.99pb4
#
DISCID=fa0e9312
DTITLE=Various Artist - 200407 PO Country Radio
DYEAR=2004
DGENRE=Country
TTITLE0=Rascal Flatts - Feels Like Today
TTITLE1=Tim McGraw - Live Like You Were Dying
TTITLE2=Big And Rich - Save A Horse (Ride A Cowboy)
TTITLE3=Alan Jackson - Too Much Of A Good Thing Is A Good Thing
TTITLE4=Gretchen Wilson - Here For The Party
TTITLE5=Trick Pony - The Bride
TTITLE6=Gary Alan - Nothing On But The Radio
TTITLE7=Sherrie Austin - Son Of A Preacher Man
TTITLE8=Anita Cochran f The Voice Of Conway Twitty - (I Wanna Hear) A 
TTITLE8=Cheatin Song
TTITLE9=Ryan Tyler - The Last Thing She Said
TTITLE10=Tracy Lawrence - It's All How You Look At It
TTITLE11=Kellie Coffey - Dance With My Father
TTITLE12=Hal Ketchum - My Love Will Not Change
TTITLE13=EW - Beautiful Day For Goodbye
TTITLE14=Kacey Jones - I Could Get Over Him
TTITLE15=Zona Jones - Whiskey Kind Of Way @
TTITLE16=Desert Justice - Traffic
TTITLE17=Hometown News - Revitalize
EXTD=
EXTT0=
EXTT1=
EXTT2=
EXTT3=
EXTT4=
EXTT5=
EXTT6=
EXTT7=
EXTT8=
EXTT9=
EXTT10=
EXTT11=
EXTT12=
EXTT13=
EXTT14=
EXTT15=
EXTT16=
EXTT17=
PLAYORDER=
